# xmcd CD database file
#
# Track frame offsets:
#	150
#	21675
#	44385
#	64990
#	86782
#	110062
#	126280
#	148887
#	171877
#
# Disc length: 2498 seconds
#
# Revision: 0
# Processed by: cddbd v1.4PL0 Copyright (c) Steve Scherf et al.
# Submitted via: CDex 1.50beta10
#
DISCID=8f09c009
DTITLE=Drum Land Blues Band - Couleurs blues
DYEAR=1998
DGENRE=Blues
TTITLE0=Drum land boogie
TTITLE1=Life's colors
TTITLE2=Full for a blues
TTITLE3=La fiesta
TTITLE4=Surrounded man
TTITLE5=Mate adore
TTITLE6=Ghost woman
TTITLE7=La belle de cador
TTITLE8=Les âmes en peine
EXTD=YEAR: 1998
EXTT0=
EXTT1=
EXTT2=
EXTT3=
EXTT4=
EXTT5=
EXTT6=
EXTT7=
EXTT8=
PLAYORDER=
